HIERARCHY
ROOT pelvis
{
  OFFSET 0 100 0
  CHANNELS 6 Xposition Yposition Zposition Zrotation Xrotation Yrotation
  JOINT pelvis_right_femur
  {
    OFFSET -10.78128 -3.44521 -0.5502486
    CHANNELS 3 Zrotation Xrotation Yrotation
    JOINT right_femur_tibia
    {
      OFFSET -0.8047443 -44.0398 -0.1307829
      CHANNELS 3 Zrotation Xrotation Yrotation
      JOINT right_tibia_foot
      {
        OFFSET 3.006224 -47.83518 -5
        CHANNELS 3 Zrotation Xrotation Yrotation
        End Site
        {
          OFFSET 0 -5 15
        }
      }
    }
  }
  JOINT pelvis_left_femur
  {
    OFFSET 10.78128 -3.44521 -0.5502486
    CHANNELS 3 Zrotation Xrotation Yrotation
    JOINT left_femur_tibia
    {
      OFFSET 0.8047443 -44.0398 -0.1307829
      CHANNELS 3 Zrotation Xrotation Yrotation
      JOINT left_tibia_foot
      {
        OFFSET -4.370144 -48.10324 -4.275266
        CHANNELS 3 Zrotation Xrotation Yrotation
        End Site
        {
          OFFSET 0 -5 15
        }
      }
    }
  }
  JOINT pelvis_spine1
  {
    OFFSET 0 6.468898 -3.129235
    CHANNELS 3 Zrotation Xrotation Yrotation
    JOINT spine1
    {
      OFFSET 0 23.15396 4.99043
      CHANNELS 3 Zrotation Xrotation Yrotation
      JOINT spine2
      {
        OFFSET 0 20.79997 -5.064912
        CHANNELS 3 Zrotation Xrotation Yrotation
        JOINT neck
        {
          OFFSET 0 14.38658 9.616178
          CHANNELS 3 Zrotation Xrotation Yrotation
          End Site
          {
            OFFSET 0 20 0
          }
        }
      }
      JOINT right_manubrium
      {
        OFFSET -5.722621 16.35077 3.967754
        CHANNELS 3 Zrotation Xrotation Yrotation
        JOINT right_clavicle
        {
          OFFSET -13.16364 1.694482 -4.693211
          CHANNELS 3 Zrotation Xrotation Yrotation
          JOINT right_humerus
          {
            OFFSET -28.5034 -0.3100689 -2.792744
            CHANNELS 3 Zrotation Xrotation Yrotation
            JOINT right_radius
            {
              OFFSET -25.15693 0.02248979 -1.271978
              CHANNELS 3 Zrotation Xrotation Yrotation
              End Site
              {
                OFFSET -15 0 0
              }
            }
          }
        }
      }
      JOINT left_manubrium
      {
        OFFSET 5.722621 16.35077 3.967754
        CHANNELS 3 Zrotation Xrotation Yrotation
        JOINT left_clavicle
        {
          OFFSET 13.16364 1.694482 -4.693211
          CHANNELS 3 Zrotation Xrotation Yrotation
          JOINT left_humerus
          {
            OFFSET 29.39168 -1.063119 -2.237045
            CHANNELS 3 Zrotation Xrotation Yrotation
            JOINT left_radius
            {
              OFFSET 24.59957 -0.9528479 0.9047498
              CHANNELS 3 Zrotation Xrotation Yrotation
              End Site
              {
                OFFSET 15 -0 -0
              }
            }
          }
        }
      }
    }
  }
}
MOTION
Frames: 21
Frame Time: 0.0416666666667
0 103.5113 0 2.178895 -1.209182 0.2827499 1.250392 -10.08115 8.7362 -0 34.64024 -0 -5.276906 -17.97308 -2.401342 -8.031332 10.1052 -23.51093 -0 5.127337 -0 7.682788 -16.15338 26.582 -4.333652 -5.047406 4.942627 2.010758 9.21742 -7.753256 0.8312024 22.81737 7.176262 3.248628 -23.10934 8.809797 6.375427 -19.76975 11.57467 86.31559 35.95159 -19.79052 -0 0 16.25082 -7.57588 8.24469 4.620572 5.487422 -19.48923 -1.694047 -94.77054 29.74442 22.93167 0 0 -16.00892 3.511376 17.90078 9.556147
0.3214655 103.4949 1.358091 2.022616 -1.099124 0.4715167 1.526522 -11.06926 8.613256 -0 34.34625 -0 -5.336863 -17.57644 -2.441053 -7.889148 10.25884 -23.39093 -0 5.167303 -0 7.547638 -16.43807 26.41387 -4.265634 -4.842983 4.879852 2.092685 9.188133 -7.783619 0.8446733 22.71539 7.197409 3.270949 -23.25535 8.836626 6.364526 -19.72136 11.57566 86.31358 35.941 -19.85035 -0 0 16.12382 -7.610771 8.28172 4.642477 5.551993 -19.55753 -1.693797 -94.6276 29.6941 22.74458 0 0 -16.36878 3.601135 17.80831 9.502112
0.6446365 103.4142 2.833505 1.815625 -0.883653 0.5770189 1.870608 -12.51362 8.330113 -0 32.83443 -0 -5.397568 -16.85395 -2.234135 -7.722884 10.45257 -23.16039 -0 5.278707 -0 7.325417 -16.89576 26.12785 -4.20178 -4.551917 4.854341 2.253018 9.12678 -7.7896 0.8711493 22.5366 7.222793 3.316655 -23.46308 8.859137 6.334518 -19.60187 11.58463 86.32354 35.92797 -19.98681 -0 0 15.86699 -7.657894 8.342067 4.657266 5.709059 -19.68006 -1.692426 -94.36613 29.60745 22.32932 0 0 -17.05588 3.767724 17.67672 9.361793
0.9795899 103.2156 4.490267 1.60567 -0.546019 0.5896277 2.187028 -14.29208 7.875466 -0 29.66523 -0 -5.435011 -15.75272 -1.683546 -7.582428 10.67753 -22.79711 -0 5.516316 -0 7.001657 -17.51758 25.69064 -4.167594 -4.208386 4.894355 2.479783 9.03324 -7.748103 0.9153075 22.29628 7.24614 3.386412 -23.71538 8.87439 6.26698 -19.39641 11.59162 86.3628 35.91271 -20.21279 -0 0 15.46374 -7.717235 8.42823 4.662076 5.975916 -19.86986 -1.681111 -93.97088 29.4846 21.65275 0 0 -18.085 4.005108 17.50916 9.125492
1.336938 102.8426 6.38632 1.458193 -0.09180229 0.5576915 2.358953 -16.18142 7.284247 -0 24.7783 -0 -5.428257 -14.28478 -0.7938738 -7.52364 10.93903 -22.29093 -0 5.951978 -0 6.557628 -18.25527 25.06096 -4.181419 -3.867811 4.999147 2.725248 8.918134 -7.651748 0.9762388 22.04088 7.263009 3.471737 -23.98456 8.886569 6.140651 -19.11398 11.57237 86.45572 35.89401 -20.51707 -0 0 14.93011 -7.791734 8.54198 4.664281 6.339216 -20.13388 -1.647877 -93.44759 29.33298 20.74935 0 0 -19.3692 4.279642 17.30779 8.820347
1.719738 102.2771 8.576269 1.394503 0.4681963 0.5462395 2.37493 -17.93428 6.572556 -0 18.63622 -0 -5.389094 -12.60895 0.3174154 -7.553226 11.24507 -21.63275 -0 6.649077 -0 5.956509 -19.01623 24.20121 -4.226458 -3.578274 5.116698 2.941593 8.784812 -7.546054 1.029819 21.81466 7.286962 3.558691 -24.23677 8.896683 5.95589 -18.7848 11.50483 86.62843 35.87237 -20.87246 -0 0 14.29983 -7.881516 8.686186 4.676236 6.742799 -20.4495 -1.608679 -92.83143 29.15733 19.71195 0 0 -20.73017 4.552534 17.07598 8.510922
2.12089 101.5566 11.12037 1.395366 1.112089 0.619278 2.295726 -19.29508 5.76878 -0 12.01402 -0 -5.350547 -10.95506 1.488446 -7.636346 11.59624 -20.81781 -0 7.701567 -0 5.143356 -19.66469 23.07811 -4.255366 -3.377414 5.179077 3.09467 8.632825 -7.495453 1.04746 21.64667 7.333531 3.632997 -24.44313 8.900353 5.73137 -18.43314 11.37945 86.90531 35.84884 -21.25781 -0 0 13.60504 -7.986194 8.865134 4.710512 7.101152 -20.77367 -1.596054 -92.17876 28.96079 18.66576 0 0 -21.94922 4.785488 16.81612 8.273395
2.524431 100.7692 14.10131 1.385045 1.780901 0.8483635 2.239548 -19.98862 4.979308 -0 6.008706 -0 -5.39022 -9.571733 2.551809 -7.678589 11.9633 -19.86185 -0 9.323133 -0 4.035124 -19.97722 21.67167 -4.175131 -3.286347 5.142514 3.186504 8.466089 -7.544083 1.021196 21.52725 7.396293 3.685113 -24.59744 8.882408 5.511116 -18.03873 11.22238 87.30122 35.82311 -21.68821 -0 0 12.8568 -8.109444 9.085235 4.775357 7.293312 -21.03924 -1.648673 -91.58069 28.74432 17.77339 0 0 -22.79165 4.941344 16.52434 8.172506
2.913548 100.037 17.60338 1.287068 2.419306 1.279553 2.299622 -19.79664 4.312212 -0 1.495479 -0 -5.572106 -8.613398 3.379044 -7.59226 12.26932 -18.79578 -0 11.75242 -0 2.57706 -19.68849 19.99207 -3.901573 -3.317737 4.996583 3.228312 8.290033 -7.699359 0.9478387 21.4395 7.461234 3.704457 -24.69412 8.82354 5.329303 -17.58782 11.06606 87.8044 35.79586 -22.16369 -0 0 12.06907 -8.261457 9.350091 4.877759 7.236712 -21.18405 -1.784716 -91.12288 28.50926 17.17188 0 0 -23.0981 4.996389 16.19729 8.245109
3.281223 99.50145 21.6634 1.049486 2.978251 1.8625 2.498595 -18.5462 3.842194 0 -1.049718 0 -5.938785 -8.107844 3.880936 -7.322083 12.33939 -17.66577 -0 15.2896 -0 0.7654348 -18.44971 18.09688 -3.374911 -3.479239 4.776379 3.226835 8.114337 -7.916235 0.818265 21.37596 7.511587 3.67332 -24.7103 8.698418 5.196118 -17.10106 10.94225 88.36061 35.77263 -22.63349 -0 0 11.27708 -8.465214 9.659333 5.028361 6.917273 -21.15412 -1.986511 -90.88269 28.25328 16.96386 0 0 -22.81018 4.942237 15.83397 8.497105
3.630997 99.2811 26.25374 0.6977584 3.34463 2.457467 2.814132 -16.2277 3.584262 0 -1.862344 0 -6.45307 -8.091373 4.092691 -6.932014 11.94023 -16.51226 -0 20.20293 -0 -1.258479 -16.07335 16.14762 -2.625414 -3.721918 4.584443 3.180124 7.983489 -8.096417 0.6341581 21.35226 7.532881 3.585101 -24.61233 8.4929 5.110325 -16.61542 10.89568 88.89799 35.76176 -23.00987 -0 0 10.5373 -8.745437 10.00852 5.239752 6.381884 -20.94024 -2.225235 -90.88152 27.97364 17.16068 0 0 -22.00382 4.786833 15.43804 8.893948
3.972292 99.43708 31.26681 0.3439256 3.3355 2.861206 3.174406 -12.92787 3.501675 0 -1.757635 0 -7.005398 -8.6477 4.156919 -6.584202 10.73645 -15.36484 -0 26.7391 -0 -3.237424 -12.58086 14.38746 -1.777927 -3.933336 4.588916 3.077566 7.977514 -8.095002 0.411645 21.40845 7.508492 3.446567 -24.35618 8.200762 5.070433 -16.18269 10.98707 89.32316 35.7764 -23.1657 -0 0 9.929267 -9.133172 10.39058 5.529118 5.71932 -20.57758 -2.467032 -91.09058 27.66468 17.69789 0 0 -20.86433 4.550115 15.01716 9.365872
4.318402 99.96517 36.54066 0.1718995 2.851971 2.947655 3.394131 -8.665622 3.480215 0 -1.501922 0 -7.479862 -9.77604 4.20856 -6.338246 8.37559 -14.21932 -0 34.67732 -0 -4.873151 -8.501949 13.07314 -1.052007 -4.003142 4.917768 2.908047 8.138135 -7.837979 0.1901861 21.58482 7.412868 3.284811 -23.93099 7.820788 5.096321 -15.86534 11.23198 89.53326 35.8303 -22.98747 -0 0 9.517282 -9.662455 10.79493 5.909713 5.012978 -20.15695 -2.677822 -91.42087 27.32054 18.45075 0 0 -19.61097 4.26802 14.58391 9.828715
4.684853 100.7921 41.88356 0.350796 1.883855 2.748022 3.270013 -3.461478 3.412043 0 -1.704301 0 -7.765963 -11.38405 4.358228 -6.175006 4.576505 -13.0742 -0 43.36398 -0 -5.949235 -4.623462 12.3608 -0.6823771 -3.856471 5.635692 2.662601 8.462837 -7.315774 0.01860581 21.912 7.219019 3.134622 -23.34466 7.356812 5.201725 -15.73584 11.60444 89.41677 35.9328 -22.3699 -0 0 9.365138 -10.37488 11.20639 6.395914 4.345709 -19.78138 -2.824811 -91.76331 26.93747 19.28067 0 0 -18.45706 3.981619 14.1532 10.20358
5.072924 101.8115 47.12887 0.9038136 0.5935612 2.41067 2.722479 2.438724 3.283895 0 -2.6128 0 -7.786305 -13.20548 4.649553 -6.03962 -0.5862141 -11.98698 -0 51.43329 -0 -6.452535 -1.651625 12.22463 -0.7620782 -3.536719 6.65381 2.347821 8.866851 -6.617008 -0.06810992 22.38136 6.919399 3.020027 -22.61247 6.830104 5.325497 -15.87649 12.0147 88.86411 36.07554 -21.22616 -0 0 9.560693 -11.32546 11.59935 7.009942 3.822006 -19.49203 -2.875828 -92.0433 26.51531 20.09557 0 0 -17.54264 3.723202 13.73739 10.45568
5.479876 102.8855 52.17428 1.758062 -0.8008016 2.108697 1.786145 8.686741 3.143886 0 -4.219352 0 -7.506452 -14.98995 5.084104 -5.865971 -6.799218 -10.99388 -0 57.48584 -0 -6.458481 0.05307659 12.59096 -1.258545 -3.141934 7.82131 1.972912 9.256542 -5.846258 -0.06313859 22.94754 6.532777 2.946562 -21.76755 6.27527 5.384693 -16.32952 12.37348 87.8258 36.22604 -19.52474 -0 0 10.17608 -12.55353 11.94681 7.770757 3.520672 -19.27822 -2.813698 -92.23222 26.06054 20.86077 0 0 -16.91242 3.502985 13.34139 10.5896
5.912322 103.8452 57.01986 2.734194 -2.049286 1.915061 0.6389673 14.8402 3.055479 0 -6.260845 0 -6.948726 -16.60287 5.616552 -5.547145 -13.48749 -10.04142 -0 60.24806 -0 -6.109423 0.6473491 13.41208 -1.990145 -2.797063 8.939621 1.540922 9.560327 -5.090095 -0.004784247 23.51205 6.120559 2.891848 -20.87863 5.74745 5.289857 -17.06223 12.61751 86.35554 36.32221 -17.32179 -0 0 11.25496 -14.0697 12.22391 8.690432 3.468342 -19.0717 -2.646243 -92.35869 25.58947 21.61123 0 0 -16.48424 3.296245 12.95774 10.65576
6.388773 104.503 61.72527 3.619651 -2.98994 1.81448 -0.487785 20.55009 3.032938 0 -8.392852 0 -6.175522 -18.03881 6.18547 -4.956539 -20.05641 -8.984238 -0 59.13141 -0 -5.572025 0.550063 14.67286 -2.735427 -2.585099 9.861987 1.077253 9.743581 -4.407194 0.06451527 23.9745 5.743038 2.832538 -20.01292 5.292236 5.011299 -18.00268 12.73143 84.56851 36.30445 -14.73749 -0 0 12.77165 -15.83152 12.4124 9.752383 3.621903 -18.81995 -2.410953 -92.46051 25.12152 22.37293 0 0 -16.13819 3.07289 12.57944 10.71239
6.938016 104.678 66.35767 4.171116 -3.543555 1.756298 -1.305242 25.54708 3.025689 0 -10.20086 0 -5.276721 -19.38797 6.718659 -3.939491 -25.88233 -7.602107 -0 54.14949 -0 -5.042575 0.3250259 16.3501 -3.255225 -2.54819 10.49215 0.634076 9.80117 -3.842068 0.1081188 24.23473 5.454444 2.751152 -19.23624 4.946754 4.583336 -19.05182 12.74034 82.6258 36.12733 -11.94999 -0 0 14.63287 -17.74609 12.502 10.90914 3.873743 -18.49777 -2.174038 -92.57262 24.67984 23.14648 0 0 -15.73053 2.802489 12.20202 10.82244
7.593034 104.2949 70.99217 4.322461 -3.741455 1.702741 -1.721465 29.73392 2.987043 0 -11.3642 0 -4.31585 -20.67229 7.176181 -2.542354 -30.58954 -5.87909 -0 46.22853 -0 -4.573897 0.1861423 18.20934 -3.476464 -2.662949 10.83134 0.2504665 9.766441 -3.422771 0.1240591 24.26306 5.272002 2.652795 -18.59564 4.726246 4.088579 -20.12143 12.67028 80.69574 35.77923 -9.167179 -0 0 16.67353 -19.70306 12.49612 12.08631 4.110335 -18.1186 -1.989236 -92.7026 24.28183 23.914 0 0 -15.15085 2.474627 11.82397 11.02596
8.38141 103.4429 75.71665 4.146533 -3.682218 1.626358 -1.832641 33.11258 2.938103 0 -11.604 0 -3.332411 -21.81021 7.539665 -1.055235 -33.97992 -4.07205 -0 36.89189 -0 -4.11632 0.09240569 19.89045 -3.456947 -2.881415 10.95177 -0.05176519 9.692731 -3.158607 0.1353761 24.08353 5.188014 2.559294 -18.12097 4.631925 3.633863 -21.12865 12.5439 78.94487 35.28134 -6.615591 -0 0 18.6855 -21.58904 12.41419 13.19834 4.2283 -17.71599 -1.892829 -92.84136 23.94114 24.64859 0 0 -14.31859 2.090618 11.44459 11.34741
